<svg xmlns="http://www.w3.org/2000/svg" width="64" height="40" viewBox="0 0 64 40"><defs><style>.a{fill:#24b36b;}.b{fill:#e1e1e6;}</style></defs><g transform="translate(-194.602 -27.387)"><path class="a" d="M29.746-12.337q0,6.893-4.163,10.9T13.943,2.578a20.4,20.4,0,0,1-6.372-.9A21.667,21.667,0,0,1,2.106-1.094L5.618-6.8A15.647,15.647,0,0,0,9.412-4.88a13.123,13.123,0,0,0,4.021.565A6.763,6.763,0,0,0,18.5-6.32q1.954-2.006,1.954-5.96V-30.642H8.45v-6.78h21.3Z" transform="translate(192.496 64.809)"/><path class="b" d="M69.574-24.657q0,6.608-4.163,9.969T54.055-11.327h-4.3V1.72H40.461V-37.422H52.809q8.156,0,12.46,3.191T69.574-24.657Zm-9.515,0q0-6.157-7.08-6.157H49.75v12.822h3.682a6.843,6.843,0,0,0,4.9-1.638A6.626,6.626,0,0,0,60.058-24.657Z" transform="translate(189.028 64.809)"/></g></svg>